<svg width="58" height="58" viewBox="0 0 58 58" fill="none" xmlns="http://www.w3.org/2000/svg">
<path d="M42.802 46.949C43.0895 46.7023 43.4227 46.5154 43.7823 46.3992C44.142 46.283 44.521 46.2398 44.8974 46.272C45.2738 46.3043 45.64 46.4114 45.975 46.5871C46.31 46.7628 46.6071 47.0036 46.849 47.2957C47.0909 47.5877 47.2729 47.9252 47.3844 48.2885C47.4959 48.6518 47.5347 49.0338 47.4986 49.4123C47.4625 49.7909 47.3521 50.1584 47.174 50.4937C46.9958 50.829 46.7533 51.1254 46.4606 51.3658C40.8128 56.1206 33.5464 58.4721 26.2043 57.9211C18.8622 57.3701 12.0225 53.9601 7.13738 48.4148C2.78157 43.4715 0.240765 37.1578 0.00184275 30.5455C-0.0253807 29.7816 0.249941 29.0381 0.76724 28.4786C1.28454 27.9191 2.00144 27.5893 2.76024 27.5619C3.51903 27.5345 4.25756 27.8117 4.81336 28.3325C5.36916 28.8532 5.6967 29.5749 5.72392 30.3388C5.88107 34.5911 7.21965 38.7137 9.58763 42.2385C11.9556 45.7633 15.2581 48.5489 19.1199 50.2789C22.9816 52.0089 27.248 52.6139 31.4342 52.0253C35.6205 51.4367 39.5589 49.678 42.802 46.949Z" fill="#FF2C3A"/>
<path d="M12.1673 6.96623C10.6712 8.03509 9.28105 9.24686 8.01627 10.5847C5.03025 13.7423 3.23733 16.0565 1.81233 20.062C1.2602 21.6204 1.32595 23.7709 2.8162 24.4076C4.47259 25.115 6.28559 24.6198 6.95668 22.9119C8.01075 20.2293 8.83693 18.816 10.5962 16.4744C11.9831 14.6281 14.2704 12.5058 15.4625 11.6337C16.7244 10.71 17.3222 8.69283 16.2179 7.42959C15.1388 6.19514 13.4061 6.08145 12.1673 6.96623Z" fill="#01AFFF"/>
<path d="M22.3646 6.97937C21.6476 7.22542 20.8629 7.17465 20.1831 6.83825C19.5033 6.50184 18.9841 5.90735 18.7396 5.18556C18.4952 4.46376 18.5457 3.67378 18.8798 2.98941C19.214 2.30504 19.8045 1.78234 20.5215 1.53629C27.4871 -0.864911 35.1081 -0.43844 41.7663 2.72516C48.4246 5.88875 53.5959 11.5403 56.1821 18.48C58.491 24.6663 58.612 31.4772 56.4793 37.7359C56.233 38.4585 55.7117 39.053 55.03 39.3886C54.3483 39.7243 53.562 39.7736 52.8442 39.5256C52.1265 39.2777 51.5359 38.7529 51.2025 38.0666C50.8691 37.3804 50.8201 36.5889 51.0664 35.8663C52.4342 31.8396 52.6528 27.5075 51.6972 23.3621C50.7417 19.2166 48.6504 15.4241 45.6609 12.4153C42.6714 9.40654 38.9036 7.30216 34.7855 6.34124C30.6674 5.38033 26.3642 5.60141 22.3646 6.97937Z" fill="#FF2C3A"/>
<path d="M17.134 37.1765C16.5457 39.6813 16.8775 41.663 17.2539 42.5741C17.6469 43.5241 18.7637 44.9227 19.4474 45.5326C20.1384 46.1472 20.9513 46.6068 21.8321 46.8813C22.782 47.1768 23.7716 47.3231 24.7659 47.3148C25.5029 47.3134 26.2295 47.1405 26.8891 46.8095C27.6013 46.453 28.2664 46.0081 28.8687 45.4851C29.5199 44.9231 30.1186 44.3022 30.6571 43.6302C31.211 42.9434 31.7285 42.2278 32.2076 41.4862C33.0984 40.1103 33.8912 38.6727 34.5803 37.1841L34.8689 37.3645C37.1276 37.8672 39.9435 37.1659 41.2294 35.0679L46.8827 25.8437C46.8827 25.8437 47.1623 25.1868 46.1886 24.5213C45.9582 24.3567 45.6872 24.2594 45.4054 24.2399C45.1236 24.2205 44.8419 24.2797 44.5914 24.4111L39.6277 32.5111L37.8268 31.3853L42.7909 23.2858C42.7909 23.2858 42.9064 22.5092 42.3066 22.1297C41.5266 21.636 40.86 22.0792 40.86 22.0792L35.8953 30.1786L34.0944 29.0528L39.0585 20.9529C39.0585 20.9529 38.9813 20.0393 38.2233 19.6022C37.487 19.1768 36.5709 19.4001 36.5709 19.4001L30.9181 28.6223C29.6768 30.648 30.228 33.3792 31.5747 35.2008C31.1105 35.8563 30.6538 36.4736 30.2044 37.0527C29.8226 37.5674 29.417 38.0655 28.9877 38.5469C28.5584 39.0283 28.1449 39.4537 27.7474 39.8233C27.3909 40.1618 26.9991 40.4607 26.5789 40.7146C26.1974 40.94 25.8628 41.0523 25.575 41.0516C25.0028 41.0516 24.7087 40.6422 24.6926 39.8233C24.6766 39.0043 24.8439 37.9203 25.1946 36.5712C25.5439 35.2237 26.0209 33.698 26.6256 31.9942C27.2302 30.2903 27.866 28.5399 28.5329 26.7431H30.3459C30.7589 26.7431 31.1403 26.5664 31.4903 26.213C31.831 25.8735 32.106 25.4733 32.3015 25.0327C32.4922 24.5991 32.5717 24.1976 32.5399 23.828C32.5078 23.4597 32.317 23.2722 31.9677 23.2722H29.8224C30.5536 21.2483 31.1894 19.3935 31.7298 17.7079C32.2702 16.0222 32.5404 14.7453 32.5404 13.8772C32.5404 13.1068 32.3815 12.4083 32.0636 11.7817C31.7684 11.188 31.3829 10.6443 30.9212 10.1703C30.5138 9.74797 30.0387 9.39778 29.5157 9.13446C29.0228 8.89327 28.6015 8.77267 28.2519 8.77267C27.7429 8.77267 27.4884 9.02953 27.4884 9.54325C27.4884 10.1543 27.3378 10.9333 27.0367 11.8803C26.7355 12.8272 26.3378 13.8952 25.8436 15.0844C25.347 16.2725 24.789 17.565 24.1696 18.962C23.5502 20.359 22.923 21.7964 22.2878 23.2742H19.2802C18.7398 23.2742 18.2946 23.4595 17.9446 23.8301C17.6135 24.1679 17.3681 24.5811 17.2293 25.0347C17.1022 25.4682 17.1022 25.8617 17.2293 26.2151C17.3565 26.5684 17.6576 26.7451 18.1328 26.7451H20.8041C19.819 29.1527 18.9771 31.4884 18.2784 33.7521C18.2211 33.9375 17.149 36.986 17.134 37.1755" fill="#FF2C3A"/>
</svg>
